# Blender 5.1.2
# www.blender.org
mtllib bench_Chair.mtl
o Cube
v 1.375439 0.487018 -0.388565
v 1.375439 0.412140 -0.388565
v 1.375439 0.487018 0.388565
v 1.375439 0.412140 0.388565
v -1.375439 0.487018 -0.388565
v -1.375439 0.412140 -0.388565
v -1.375439 0.487018 0.388565
v -1.375439 0.412140 0.388565
vn -0.0000 1.0000 -0.0000
vn -0.0000 -0.0000 1.0000
vn -1.0000 -0.0000 -0.0000
vn -0.0000 -1.0000 -0.0000
vn 1.0000 -0.0000 -0.0000
vn -0.0000 -0.0000 -1.0000
vt 0.625000 0.500000
vt 0.875000 0.500000
vt 0.875000 0.750000
vt 0.625000 0.750000
vt 0.375000 0.750000
vt 0.625000 1.000000
vt 0.375000 1.000000
vt 0.375000 0.000000
vt 0.625000 0.000000
vt 0.625000 0.250000
vt 0.375000 0.250000
vt 0.125000 0.500000
vt 0.375000 0.500000
vt 0.125000 0.750000
s 0
usemtl Material
f 1/1/1 5/2/1 7/3/1 3/4/1
f 4/5/2 3/4/2 7/6/2 8/7/2
f 8/8/3 7/9/3 5/10/3 6/11/3
f 6/12/4 2/13/4 4/5/4 8/14/4
f 2/13/5 1/1/5 3/4/5 4/5/5
f 6/11/6 5/10/6 1/1/6 2/13/6
o Cube.001
v 1.112106 0.058142 -0.312653
v 1.112106 0.406575 -0.134906
v 1.112106 0.056003 -0.395859
v 1.112106 0.415629 -0.218112
v 1.272278 0.058142 -0.312653
v 1.272278 0.406575 -0.134906
v 1.272278 0.056003 -0.395859
v 1.272278 0.415629 -0.218112
vn -1.0000 -0.0000 -0.0000
vn -0.0000 0.4431 -0.8965
vn 1.0000 -0.0000 -0.0000
vn -0.0000 -0.4544 0.8908
vn -0.0000 -0.9997 0.0257
vn -0.0000 0.9941 0.1082
vt 0.375000 0.000000
vt 0.625000 0.000000
vt 0.625000 0.250000
vt 0.375000 0.250000
vt 0.625000 0.500000
vt 0.375000 0.500000
vt 0.625000 0.750000
vt 0.375000 0.750000
vt 0.625000 1.000000
vt 0.375000 1.000000
vt 0.125000 0.500000
vt 0.125000 0.750000
vt 0.875000 0.500000
vt 0.875000 0.750000
s 0
usemtl Material
f 9/15/7 10/16/7 12/17/7 11/18/7
f 11/18/8 12/17/8 16/19/8 15/20/8
f 15/20/9 16/19/9 14/21/9 13/22/9
f 13/22/10 14/21/10 10/23/10 9/24/10
f 11/25/11 15/20/11 13/22/11 9/26/11
f 16/19/12 12/27/12 10/28/12 14/21/12
o Cube.002
v 1.272258 0.058142 0.404233
v 1.272331 0.406575 0.226487
v 1.272224 0.056003 0.487439
v 1.272297 0.415629 0.309692
v 1.112086 0.058142 0.404168
v 1.112159 0.406575 0.226421
v 1.112052 0.056003 0.487374
v 1.112125 0.415629 0.309627
vn 1.0000 -0.0000 0.0004
vn -0.0004 0.4431 0.8965
vn -1.0000 -0.0000 -0.0004
vn 0.0004 -0.4544 -0.8908
vn -0.0000 -0.9997 -0.0257
vn -0.0000 0.9941 -0.1082
vt 0.375000 0.000000
vt 0.625000 0.000000
vt 0.625000 0.250000
vt 0.375000 0.250000
vt 0.625000 0.500000
vt 0.375000 0.500000
vt 0.625000 0.750000
vt 0.375000 0.750000
vt 0.625000 1.000000
vt 0.375000 1.000000
vt 0.125000 0.500000
vt 0.125000 0.750000
vt 0.875000 0.500000
vt 0.875000 0.750000
s 0
usemtl Material
f 17/29/13 18/30/13 20/31/13 19/32/13
f 19/32/14 20/31/14 24/33/14 23/34/14
f 23/34/15 24/33/15 22/35/15 21/36/15
f 21/36/16 22/35/16 18/37/16 17/38/16
f 19/39/17 23/34/17 21/36/17 17/40/17
f 24/33/18 20/41/18 18/42/18 22/35/18
o Cube.003
v -1.152165 0.058142 0.404233
v -1.152092 0.406575 0.226487
v -1.152199 0.056003 0.487439
v -1.152126 0.415629 0.309692
v -1.312337 0.058142 0.404168
v -1.312264 0.406575 0.226421
v -1.312371 0.056003 0.487374
v -1.312298 0.415629 0.309627
vn 1.0000 -0.0000 0.0004
vn -0.0004 0.4431 0.8965
vn -1.0000 -0.0000 -0.0004
vn 0.0004 -0.4544 -0.8908
vn -0.0000 -0.9997 -0.0257
vn -0.0000 0.9941 -0.1082
vt 0.375000 0.000000
vt 0.625000 0.000000
vt 0.625000 0.250000
vt 0.375000 0.250000
vt 0.625000 0.500000
vt 0.375000 0.500000
vt 0.625000 0.750000
vt 0.375000 0.750000
vt 0.625000 1.000000
vt 0.375000 1.000000
vt 0.125000 0.500000
vt 0.125000 0.750000
vt 0.875000 0.500000
vt 0.875000 0.750000
s 0
usemtl Material
f 25/43/19 26/44/19 28/45/19 27/46/19
f 27/46/20 28/45/20 32/47/20 31/48/20
f 31/48/21 32/47/21 30/49/21 29/50/21
f 29/50/22 30/49/22 26/51/22 25/52/22
f 27/53/23 31/48/23 29/50/23 25/54/23
f 32/47/24 28/55/24 26/56/24 30/49/24
o Cube.004
v -1.311079 0.058142 -0.408162
v -1.315637 0.406575 -0.230474
v -1.308946 0.056003 -0.491341
v -1.313503 0.415629 -0.313652
v -1.150960 0.058142 -0.404055
v -1.155517 0.406575 -0.226367
v -1.148826 0.056003 -0.487234
v -1.153384 0.415629 -0.309545
vn -0.9997 -0.0000 -0.0256
vn 0.0230 0.4431 -0.8962
vn 0.9997 -0.0000 0.0256
vn -0.0228 -0.4544 0.8905
vn -0.0007 -0.9997 0.0257
vn -0.0028 0.9941 0.1081
vt 0.375000 0.000000
vt 0.625000 0.000000
vt 0.625000 0.250000
vt 0.375000 0.250000
vt 0.625000 0.500000
vt 0.375000 0.500000
vt 0.625000 0.750000
vt 0.375000 0.750000
vt 0.625000 1.000000
vt 0.375000 1.000000
vt 0.125000 0.500000
vt 0.125000 0.750000
vt 0.875000 0.500000
vt 0.875000 0.750000
s 0
usemtl Material
f 33/57/25 34/58/25 36/59/25 35/60/25
f 35/60/26 36/59/26 40/61/26 39/62/26
f 39/62/27 40/61/27 38/63/27 37/64/27
f 37/64/28 38/63/28 34/65/28 33/66/28
f 35/67/29 39/62/29 37/64/29 33/68/29
f 40/61/30 36/69/30 34/70/30 38/63/30
